<?xml version="1.0" encoding="UTF-8"?>
<!DOCTYPE svg PUBLIC "-//W3C//DTD SVG 1.1//EN" "http://www.w3.org/Graphics/SVG/1.1/DTD/svg11.dtd">
<!-- Creator: CorelDRAW 2019 (64 Bit) -->
<svg xmlns="http://www.w3.org/2000/svg" xml:space="preserve" width="2063px" height="590px" version="1.1" style="shape-rendering:geometricPrecision; text-rendering:geometricPrecision; image-rendering:optimizeQuality; fill-rule:evenodd; clip-rule:evenodd"
viewBox="0 0 481.34 137.69"
 xmlns:xlink="http://www.w3.org/1999/xlink">
 <defs>
  <style type="text/css">
   <![CDATA[
    .fil0 {fill:none}
    .fil1 {fill:#ED3237}
    .fil2 {fill:#273C75}
    .fil4 {fill:#ED3237;fill-rule:nonzero}
    .fil5 {fill:#273C75;fill-rule:nonzero}
    .fil3 {fill:url(#id0)}
   ]]>
  </style>
  <linearGradient id="id0" gradientUnits="userSpaceOnUse" x1="112.25" y1="63.13" x2="100.69" y2="37.05">
   <stop offset="0" style="stop-opacity:1; stop-color:#ED3237"/>
   <stop offset="1" style="stop-opacity:1; stop-color:#892F30"/>
  </linearGradient>
 </defs>
 <g id="Camada_x0020_1">
  <metadata id="CorelCorpID_0Corel-Layer"/>
  <rect class="fil0" width="481.34" height="137.69"/>
  <path class="fil1" d="M119.95 15.91c12.58,4.62 22.17,12.87 26.36,24.15 6.2,16.7 -0.92,35.97 -16.77,51.28l1.07 2.72c-3.69,3.02 -7.62,5.91 -11.75,8.63l-0.8 -2.04c-6.64,4.55 -14.2,8.47 -22.47,11.5 -23.92,8.74 -48.12,7.94 -65.08,-0.47 9.93,3.64 21.74,5.01 34.23,3.81l25.72 -69.04c0.68,-1.82 2.4,-6.49 0.54,-7.33l18.01 0.01 18.21 46.31c13.47,-14.68 19.15,-32.35 13.4,-47.82 -3.53,-9.51 -10.9,-16.87 -20.67,-21.71zm15.55 90.57l6.43 16.36c1.08,2.77 2.45,4.04 3.88,5.01l-17.1 0 -5.21 -13.32c4.18,-2.54 8.18,-5.23 12,-8.05zm-55.36 6.27c3.25,-0.84 6.51,-1.85 9.76,-3.04 9.85,-3.6 18.67,-8.47 26.17,-14.16l-14.6 -37.26 -21.33 54.46z"/>
  <path class="fil2" d="M65.15 14.27c41.65,-15.77 84.08,-4.41 94.77,25.37 10.69,29.77 -14.4,66.68 -56.06,82.45 -41.65,15.76 -84.08,4.4 -94.77,-25.37 -4.01,-11.17 -2.99,-23.34 2.06,-35.02 -4.2,10.31 -4.93,20.98 -1.34,30.81 9.97,27.37 49.56,37.81 88.42,23.32 38.86,-14.49 62.28,-48.41 52.3,-75.78 -9.97,-27.37 -49.56,-37.81 -88.42,-23.32 -14.03,5.23 -26.05,13 -35.21,22.08 9.88,-10.1 22.94,-18.75 38.25,-24.54z"/>
  <polygon class="fil3" points="93.94,39.12 109.01,39.13 119.25,65.18 104.13,65.07 "/>
  <g id="_841644336">
   <path class="fil4" d="M184.13 77.81c-0.73,0.2 -1.35,0.43 -1.84,0.69 -0.5,0.27 -0.92,0.87 -1.25,1.8l-1.4 3.88c-0.59,1.8 -0.99,3.24 -1.19,4.34 -0.2,1.09 -0.18,1.94 0.05,2.54 0.23,0.59 0.68,1.01 1.34,1.24 0.67,0.24 1.57,0.35 2.69,0.35l0 1.99 -13.75 0 0 -1.99c1.6,0 2.96,-0.2 4.09,-0.6 1.13,-0.4 1.96,-1.39 2.49,-2.99l21.92 -61.97 2.99 0 21.92 62.27c0.53,1.53 1.38,2.46 2.54,2.79 1.16,0.34 2.71,0.5 4.63,0.5l0 1.99 -24.01 0 0 -1.99c2.79,0 4.37,-0.56 4.73,-1.69 0.37,-1.13 -0.05,-3.39 -1.24,-6.78l-3.39 -9.76c-0.6,-1.33 -1.79,-1.8 -3.59,-1.4l-17.73 4.79zm11.46 -31.49c-0.4,-1.06 -0.85,-1.58 -1.35,-1.54 -0.5,0.03 -0.91,0.54 -1.24,1.54l-9.97 28.2c-0.13,0.4 -0.16,0.75 -0.1,1.04 0.07,0.3 0.6,0.32 1.6,0.05l16.94 -4.48c0.73,-0.2 1.27,-0.53 1.64,-1 0.36,-0.46 0.31,-1.32 -0.15,-2.59l-7.37 -21.22zm65.56 -19.03c5.31,0 10.01,0.88 14.1,2.64 4.08,1.76 7.52,4.17 10.31,7.22 2.79,3.06 4.91,6.65 6.38,10.76 1.46,4.12 2.19,8.51 2.19,13.16 0,4.71 -0.73,9.11 -2.19,13.2 -1.47,4.08 -3.59,7.64 -6.38,10.66 -2.79,3.02 -6.23,5.41 -10.31,7.17 -4.09,1.76 -8.79,2.64 -14.1,2.64l-26.8 0 0 -1.99c1.39,0 2.5,-0.15 3.33,-0.45 0.83,-0.3 1.47,-0.78 1.9,-1.44 0.43,-0.67 0.71,-1.55 0.84,-2.64 0.14,-1.1 0.2,-2.41 0.2,-3.94l0 -46.43c0,-1.53 -0.06,-2.84 -0.2,-3.93 -0.13,-1.1 -0.41,-2 -0.84,-2.69 -0.43,-0.7 -1.07,-1.2 -1.9,-1.5 -0.83,-0.3 -1.94,-0.45 -3.33,-0.45l0 -1.99 26.8 0zm-9.07 56.99c0,1.53 0.07,2.84 0.2,3.94 0.13,1.09 0.42,1.97 0.85,2.64 0.43,0.66 1.06,1.14 1.89,1.44 0.83,0.3 1.94,0.45 3.34,0.45l2.79 0c4.18,0 7.67,-0.83 10.46,-2.49 2.79,-1.66 5,-3.92 6.63,-6.77 1.62,-2.86 2.77,-6.22 3.43,-10.07 0.67,-3.85 1,-7.97 1,-12.35 0,-4.39 -0.33,-8.51 -1,-12.36 -0.66,-3.85 -1.81,-7.22 -3.43,-10.11 -1.63,-2.89 -3.84,-5.17 -6.63,-6.83 -2.79,-1.66 -6.28,-2.49 -10.46,-2.49l-2.79 0c-1.4,0 -2.51,0.15 -3.34,0.45 -0.83,0.3 -1.46,0.8 -1.89,1.5 -0.43,0.69 -0.72,1.59 -0.85,2.69 -0.13,1.09 -0.2,2.4 -0.2,3.93l0 46.43zm53.61 -6.47c-0.73,0.2 -1.35,0.43 -1.85,0.69 -0.5,0.27 -0.91,0.87 -1.24,1.8l-1.4 3.88c-0.6,1.8 -0.99,3.24 -1.19,4.34 -0.2,1.09 -0.19,1.94 0.05,2.54 0.23,0.59 0.68,1.01 1.34,1.24 0.67,0.24 1.56,0.35 2.69,0.35l0 1.99 -13.75 0 0 -1.99c1.6,0 2.96,-0.2 4.09,-0.6 1.13,-0.4 1.96,-1.39 2.49,-2.99l21.92 -61.97 2.99 0 21.92 62.27c0.53,1.53 1.38,2.46 2.54,2.79 1.16,0.34 2.71,0.5 4.63,0.5l0 1.99 -24.01 0 0 -1.99c2.79,0 4.37,-0.56 4.73,-1.69 0.37,-1.13 -0.05,-3.39 -1.24,-6.78l-3.39 -9.76c-0.6,-1.33 -1.8,-1.8 -3.59,-1.4l-17.73 4.79zm11.45 -31.49c-0.39,-1.06 -0.84,-1.58 -1.34,-1.54 -0.5,0.03 -0.91,0.54 -1.25,1.54l-9.96 28.2c-0.13,0.4 -0.17,0.75 -0.1,1.04 0.07,0.3 0.6,0.32 1.59,0.05l16.94 -4.48c0.73,-0.2 1.28,-0.53 1.65,-1 0.36,-0.46 0.31,-1.32 -0.15,-2.59l-7.38 -21.22zm62.05 -19.13c1.51,0 3.2,0.02 5.06,0.05 1.86,0.03 3.74,0.22 5.66,0.55 1.93,0.33 3.79,0.84 5.57,1.54 1.79,0.7 3.38,1.68 4.78,2.94 1.38,1.26 2.51,2.91 3.37,4.93 0.86,2.03 1.29,4.5 1.29,7.43 0,2.32 -0.38,4.55 -1.14,6.67 -0.77,2.13 -1.91,3.99 -3.44,5.58 -1.53,1.6 -3.45,2.86 -5.78,3.79 -2.32,0.93 -5.05,1.39 -8.17,1.39l-10.96 0c-0.53,0 -0.96,0.2 -1.29,0.6 -0.34,0.4 -0.5,0.8 -0.5,1.2l0 20.32c0,1.53 0.07,2.84 0.2,3.94 0.13,1.09 0.4,1.97 0.79,2.64 0.4,0.66 1.02,1.14 1.85,1.44 0.83,0.3 1.94,0.45 3.34,0.45l0 1.99 -23.92 0 0 -1.99c1.4,0 2.51,-0.15 3.34,-0.45 0.83,-0.3 1.46,-0.78 1.89,-1.44 0.44,-0.67 0.72,-1.55 0.85,-2.64 0.13,-1.1 0.2,-2.41 0.2,-3.94l0 -46.53c0,-1.53 -0.07,-2.82 -0.2,-3.88 -0.13,-1.07 -0.41,-1.95 -0.85,-2.64 -0.43,-0.7 -1.06,-1.2 -1.89,-1.5 -0.83,-0.3 -1.94,-0.45 -3.34,-0.45l0 -1.99 23.29 0zm-5.55 31.09c0,0.46 0.16,0.88 0.5,1.24 0.33,0.37 0.76,0.55 1.31,0.55l3.3 0c1.93,0 3.79,-0.28 5.55,-0.85 1.78,-0.56 3.34,-1.46 4.72,-2.69 1.36,-1.23 2.44,-2.82 3.25,-4.78 0.8,-1.96 1.2,-4.33 1.2,-7.12 0,-3.06 -0.48,-5.58 -1.45,-7.58 -0.98,-1.99 -2.17,-3.55 -3.6,-4.68 -1.45,-1.13 -2.99,-1.93 -4.67,-2.39 -1.66,-0.47 -3.17,-0.73 -4.5,-0.8 -1.28,0.07 -2.27,0.27 -3,0.6 -0.74,0.33 -1.32,0.83 -1.71,1.5 -0.4,0.66 -0.65,1.52 -0.75,2.59 -0.1,1.06 -0.15,2.32 -0.15,3.78l0 20.63zm97.74 -30.89c0.2,2.06 0.42,4.12 0.65,6.18 0.23,2.06 0.45,4.12 0.65,6.17l-2.29 0c-0.14,-1.19 -0.44,-2.4 -0.9,-3.63 -0.47,-1.23 -1.13,-2.34 -1.99,-3.34 -0.87,-1 -1.96,-1.81 -3.29,-2.44 -1.33,-0.63 -2.92,-0.95 -4.78,-0.95l-6.18 0c-1.4,0 -2.51,0.15 -3.34,0.45 -0.83,0.3 -1.44,0.8 -1.84,1.5 -0.4,0.69 -0.67,1.59 -0.8,2.69 -0.13,1.09 -0.2,2.4 -0.2,3.93l0 46.43c0,1.53 0.07,2.82 0.2,3.89 0.13,1.06 0.4,1.94 0.8,2.64 0.4,0.7 1.01,1.19 1.84,1.49 0.83,0.3 1.94,0.45 3.34,0.45l0 1.99 -23.81 0 0 -1.99c1.39,0 2.5,-0.15 3.33,-0.45 0.83,-0.3 1.45,-0.79 1.85,-1.49 0.4,-0.7 0.66,-1.58 0.79,-2.64 0.14,-1.07 0.2,-2.36 0.2,-3.89l0 -46.43c0,-1.53 -0.06,-2.84 -0.2,-3.93 -0.13,-1.1 -0.39,-2 -0.79,-2.69 -0.4,-0.7 -1.02,-1.2 -1.85,-1.5 -0.83,-0.3 -1.94,-0.45 -3.33,-0.45l-6.28 0c-1.86,0 -3.46,0.32 -4.78,0.95 -1.33,0.63 -2.43,1.44 -3.29,2.44 -0.87,1 -1.51,2.11 -1.95,3.34 -0.43,1.23 -0.71,2.44 -0.84,3.63l-2.29 0c0.2,-2.05 0.41,-4.11 0.64,-6.17 0.24,-2.06 0.45,-4.12 0.65,-6.18l60.08 0z"/>
   <path class="fil5" d="M175.72 105.76c1.4,0 2.55,0.27 3.44,0.81 0.34,0.17 0.62,0.29 0.84,0.36 0.22,0.07 0.39,0.07 0.51,0.01 0.13,-0.06 0.21,-0.18 0.25,-0.37 0.03,-0.19 0.05,-0.46 0.05,-0.81l0.54 0 0 4.27 -0.54 0c0,-0.66 -0.21,-1.29 -0.64,-1.87 -0.42,-0.58 -0.96,-1.03 -1.61,-1.36 -0.78,-0.39 -1.72,-0.58 -2.84,-0.58 -0.83,0 -1.56,0.19 -2.19,0.58 -0.63,0.39 -1.15,0.92 -1.57,1.59 -0.42,0.68 -0.73,1.46 -0.94,2.36 -0.21,0.9 -0.31,1.86 -0.31,2.88 0,1.03 0.07,1.99 0.23,2.89 0.15,0.89 0.42,1.68 0.8,2.35 0.38,0.68 0.89,1.21 1.54,1.59 0.66,0.39 1.47,0.59 2.44,0.59 2.48,0 4.17,-1 5.07,-2.98l0.58 0c-0.43,1.04 -1.1,1.87 -2,2.5 -0.9,0.63 -2.11,0.94 -3.65,0.94 -1.23,0 -2.33,-0.2 -3.29,-0.62 -0.97,-0.41 -1.77,-0.97 -2.42,-1.68 -0.65,-0.71 -1.14,-1.55 -1.48,-2.51 -0.33,-0.96 -0.5,-1.98 -0.5,-3.07 0,-1.08 0.17,-2.1 0.5,-3.06 0.34,-0.96 0.83,-1.8 1.48,-2.51 0.65,-0.72 1.45,-1.28 2.42,-1.69 0.96,-0.41 2.06,-0.61 3.29,-0.61zm26.06 0c1.24,0 2.33,0.2 3.28,0.61 0.95,0.41 1.75,0.98 2.4,1.7 0.65,0.72 1.14,1.56 1.49,2.52 0.34,0.96 0.51,1.98 0.51,3.07 0,1.08 -0.17,2.1 -0.51,3.06 -0.35,0.96 -0.84,1.8 -1.49,2.51 -0.65,0.72 -1.45,1.28 -2.4,1.69 -0.95,0.41 -2.04,0.61 -3.28,0.61 -1.24,0 -2.33,-0.2 -3.29,-0.61 -0.95,-0.41 -1.75,-0.97 -2.4,-1.69 -0.64,-0.71 -1.14,-1.55 -1.48,-2.51 -0.34,-0.96 -0.51,-1.98 -0.51,-3.06 0,-1.09 0.17,-2.11 0.51,-3.07 0.34,-0.96 0.84,-1.8 1.48,-2.52 0.65,-0.72 1.45,-1.29 2.4,-1.7 0.96,-0.41 2.05,-0.61 3.29,-0.61zm5.01 7.9c0,-1.03 -0.08,-1.99 -0.24,-2.89 -0.15,-0.9 -0.42,-1.69 -0.8,-2.37 -0.38,-0.68 -0.89,-1.21 -1.54,-1.6 -0.64,-0.39 -1.45,-0.58 -2.43,-0.58 -0.98,0 -1.79,0.19 -2.43,0.58 -0.65,0.39 -1.16,0.92 -1.54,1.6 -0.39,0.68 -0.65,1.47 -0.81,2.37 -0.15,0.9 -0.23,1.86 -0.23,2.89 0,1.02 0.08,1.98 0.23,2.87 0.16,0.9 0.42,1.69 0.81,2.36 0.38,0.68 0.89,1.21 1.54,1.6 0.64,0.39 1.45,0.58 2.43,0.58 0.98,0 1.79,-0.19 2.43,-0.58 0.65,-0.39 1.16,-0.92 1.54,-1.6 0.38,-0.67 0.65,-1.46 0.8,-2.36 0.16,-0.89 0.24,-1.85 0.24,-2.87zm25.97 2.41c0.23,0.33 0.4,0.47 0.52,0.42 0.12,-0.04 0.17,-0.18 0.17,-0.39l0 -7.93c0,-0.41 -0.02,-0.76 -0.07,-1.02 -0.04,-0.26 -0.12,-0.46 -0.22,-0.6 -0.1,-0.14 -0.24,-0.24 -0.41,-0.28 -0.18,-0.05 -0.4,-0.07 -0.67,-0.07l0 -0.47 3.21 0 0 0.47c-0.26,0 -0.49,0.02 -0.66,0.07 -0.18,0.04 -0.32,0.14 -0.42,0.28 -0.1,0.14 -0.18,0.34 -0.22,0.6 -0.05,0.26 -0.07,0.61 -0.07,1.02l0 13.29 -0.7 0 -9.01 -12.64c-0.25,-0.32 -0.43,-0.45 -0.54,-0.39 -0.11,0.06 -0.16,0.2 -0.16,0.42l0 10.17c0,0.44 0.02,0.78 0.07,1.04 0.04,0.25 0.12,0.45 0.22,0.59 0.1,0.14 0.24,0.23 0.42,0.28 0.18,0.05 0.4,0.07 0.66,0.07l0 0.46 -3.21 0 0 -0.46c0.27,0 0.48,-0.02 0.65,-0.07 0.17,-0.05 0.31,-0.14 0.42,-0.28 0.11,-0.14 0.18,-0.34 0.22,-0.59 0.04,-0.26 0.06,-0.6 0.06,-1.04l0 -10.85c0,-0.71 -0.08,-1.22 -0.24,-1.52 -0.17,-0.3 -0.53,-0.45 -1.11,-0.45l0 -0.47 3.7 0 7.39 10.34zm29.57 -10.29c0.05,0.48 0.1,0.96 0.15,1.44 0.06,0.48 0.11,0.96 0.15,1.44l-0.53 0c-0.03,-0.28 -0.1,-0.56 -0.21,-0.85 -0.11,-0.28 -0.26,-0.54 -0.47,-0.77 -0.2,-0.24 -0.45,-0.43 -0.76,-0.57 -0.31,-0.15 -0.68,-0.23 -1.12,-0.23l-1.44 0c-0.32,0 -0.58,0.04 -0.78,0.11 -0.19,0.07 -0.33,0.19 -0.43,0.35 -0.09,0.16 -0.15,0.37 -0.18,0.63 -0.03,0.25 -0.05,0.56 -0.05,0.91l0 10.83c0,0.36 0.02,0.66 0.05,0.91 0.03,0.24 0.09,0.45 0.18,0.61 0.1,0.17 0.24,0.28 0.43,0.35 0.2,0.07 0.46,0.11 0.78,0.11l0 0.46 -5.55 0 0 -0.46c0.32,0 0.58,-0.04 0.78,-0.11 0.19,-0.07 0.33,-0.18 0.43,-0.35 0.09,-0.16 0.15,-0.37 0.18,-0.61 0.03,-0.25 0.05,-0.55 0.05,-0.91l0 -10.83c0,-0.35 -0.02,-0.66 -0.05,-0.91 -0.03,-0.26 -0.09,-0.47 -0.18,-0.63 -0.1,-0.16 -0.24,-0.28 -0.43,-0.35 -0.2,-0.07 -0.46,-0.11 -0.78,-0.11l-1.47 0c-0.43,0 -0.8,0.08 -1.11,0.23 -0.31,0.14 -0.57,0.33 -0.77,0.57 -0.2,0.23 -0.35,0.49 -0.45,0.77 -0.1,0.29 -0.17,0.57 -0.2,0.85l-0.53 0c0.04,-0.48 0.09,-0.96 0.15,-1.44 0.05,-0.48 0.1,-0.96 0.15,-1.44l14.01 0zm13.08 11.76c-0.17,0.04 -0.32,0.1 -0.43,0.16 -0.12,0.06 -0.22,0.2 -0.3,0.42l-0.32 0.9c-0.14,0.42 -0.23,0.76 -0.28,1.01 -0.05,0.26 -0.04,0.46 0.01,0.6 0.06,0.14 0.16,0.23 0.32,0.29 0.15,0.05 0.36,0.08 0.62,0.08l0 0.46 -3.2 0 0 -0.46c0.37,0 0.69,-0.05 0.95,-0.14 0.26,-0.09 0.46,-0.33 0.58,-0.7l5.11 -14.45 0.7 0 5.11 14.52c0.13,0.36 0.32,0.58 0.59,0.65 0.27,0.08 0.64,0.12 1.08,0.12l0 0.46 -5.6 0 0 -0.46c0.66,0 1.02,-0.13 1.11,-0.4 0.08,-0.26 -0.01,-0.79 -0.29,-1.58l-0.79 -2.27c-0.14,-0.31 -0.42,-0.42 -0.84,-0.33l-4.13 1.12zm2.67 -7.34c-0.1,-0.25 -0.2,-0.37 -0.32,-0.37 -0.11,0.01 -0.21,0.13 -0.29,0.37l-2.32 6.57c-0.03,0.09 -0.04,0.17 -0.02,0.24 0.01,0.07 0.14,0.08 0.37,0.02l3.95 -1.05c0.17,-0.05 0.3,-0.12 0.38,-0.23 0.09,-0.11 0.08,-0.31 -0.03,-0.61l-1.72 -4.94zm26.2 -4.44c0.75,0 1.47,0.02 2.17,0.08 0.71,0.05 1.33,0.2 1.87,0.43 0.55,0.23 0.98,0.59 1.31,1.08 0.32,0.49 0.48,1.16 0.48,2.03 0,0.51 -0.09,0.98 -0.26,1.4 -0.18,0.41 -0.42,0.78 -0.71,1.1 -0.3,0.32 -0.63,0.58 -1.01,0.79 -0.38,0.21 -0.77,0.37 -1.18,0.48 0.73,-0.19 1.39,-0.19 1.99,0 0.6,0.18 1.1,0.49 1.52,0.91 0.42,0.43 0.75,0.93 0.98,1.5 0.23,0.58 0.35,1.15 0.35,1.72 0,0.99 -0.17,1.77 -0.51,2.34 -0.35,0.56 -0.82,0.98 -1.43,1.26 -0.62,0.28 -1.34,0.45 -2.18,0.51 -0.83,0.07 -1.74,0.1 -2.71,0.1l-6.28 0 0 -0.47c0.33,0 0.59,-0.03 0.78,-0.1 0.19,-0.07 0.34,-0.18 0.44,-0.34 0.1,-0.15 0.17,-0.36 0.2,-0.61 0.03,-0.26 0.05,-0.57 0.05,-0.92l0 -10.83c0,-0.36 -0.02,-0.66 -0.05,-0.92 -0.03,-0.25 -0.1,-0.46 -0.2,-0.63 -0.1,-0.16 -0.25,-0.27 -0.44,-0.34 -0.19,-0.07 -0.45,-0.11 -0.78,-0.11l0 -0.46 5.6 0zm-1.46 7.71c0,0.11 0.04,0.19 0.13,0.26 0.08,0.06 0.19,0.07 0.31,0.04l0.79 -0.21c0.42,-0.1 0.83,-0.26 1.24,-0.47 0.41,-0.21 0.78,-0.47 1.09,-0.77 0.32,-0.3 0.58,-0.66 0.77,-1.08 0.19,-0.42 0.29,-0.9 0.29,-1.44 0,-1.24 -0.29,-2.14 -0.86,-2.7 -0.57,-0.55 -1.38,-0.85 -2.41,-0.88 -0.31,0.02 -0.56,0.06 -0.74,0.14 -0.17,0.08 -0.31,0.2 -0.4,0.36 -0.1,0.16 -0.15,0.37 -0.18,0.62 -0.02,0.24 -0.03,0.54 -0.03,0.88l0 5.25zm0 5.58c0,0.35 0.01,0.66 0.04,0.92 0.03,0.25 0.1,0.46 0.2,0.61 0.1,0.16 0.25,0.27 0.43,0.34 0.19,0.07 0.44,0.1 0.77,0.1l0.7 0c0.66,0 1.25,-0.04 1.77,-0.13 0.52,-0.08 0.96,-0.26 1.3,-0.53 0.35,-0.27 0.62,-0.65 0.81,-1.14 0.18,-0.49 0.27,-1.13 0.27,-1.94 0,-0.68 -0.14,-1.26 -0.44,-1.75 -0.29,-0.49 -0.68,-0.87 -1.16,-1.15 -0.48,-0.28 -1.03,-0.45 -1.64,-0.51 -0.61,-0.07 -1.22,-0.01 -1.84,0.16l-0.77 0.21c-0.3,0.08 -0.44,0.27 -0.44,0.58l0 4.23zm26.43 1.95l0 0.46 -5.57 0 0 -0.46c0.32,0 0.58,-0.04 0.76,-0.11 0.19,-0.07 0.33,-0.18 0.43,-0.33 0.1,-0.16 0.17,-0.36 0.2,-0.62 0.03,-0.25 0.05,-0.56 0.05,-0.92l0 -10.85c0,-0.35 -0.02,-0.65 -0.05,-0.9 -0.03,-0.25 -0.1,-0.46 -0.2,-0.62 -0.1,-0.16 -0.24,-0.28 -0.43,-0.35 -0.18,-0.07 -0.44,-0.1 -0.76,-0.1l0 -0.47 5.57 0 0 0.47c-0.32,0 -0.58,0.03 -0.77,0.1 -0.2,0.07 -0.34,0.19 -0.45,0.35 -0.1,0.16 -0.16,0.37 -0.19,0.62 -0.03,0.25 -0.05,0.55 -0.05,0.9l0 10.85c0,0.36 0.02,0.67 0.05,0.92 0.03,0.26 0.09,0.46 0.19,0.62 0.11,0.15 0.25,0.26 0.45,0.33 0.19,0.07 0.45,0.11 0.77,0.11zm20.82 0c0.43,0 0.8,-0.07 1.11,-0.22 0.31,-0.15 0.57,-0.34 0.77,-0.57 0.2,-0.23 0.35,-0.49 0.45,-0.78 0.1,-0.29 0.17,-0.57 0.2,-0.85l0.53 0 -0.3 2.88 -10.85 0 0 -0.46c0.33,0 0.59,-0.04 0.78,-0.11 0.19,-0.07 0.34,-0.18 0.44,-0.33 0.1,-0.16 0.17,-0.36 0.2,-0.62 0.03,-0.25 0.05,-0.56 0.05,-0.92l0 -10.85c0,-0.35 -0.02,-0.65 -0.05,-0.9 -0.03,-0.25 -0.1,-0.46 -0.2,-0.62 -0.1,-0.16 -0.25,-0.28 -0.44,-0.35 -0.19,-0.07 -0.45,-0.1 -0.78,-0.1l0 -0.47 5.6 0 0 0.47c-0.32,0 -0.58,0.03 -0.78,0.1 -0.19,0.07 -0.34,0.19 -0.44,0.35 -0.1,0.16 -0.17,0.37 -0.2,0.62 -0.03,0.25 -0.04,0.55 -0.04,0.9l0 10.85c0,0.36 0.01,0.67 0.04,0.92 0.03,0.26 0.1,0.46 0.2,0.62 0.1,0.15 0.25,0.26 0.44,0.33 0.2,0.07 0.46,0.11 0.78,0.11l2.49 0zm21.35 0l0 0.46 -5.58 0 0 -0.46c0.32,0 0.58,-0.04 0.77,-0.11 0.18,-0.07 0.33,-0.18 0.43,-0.33 0.1,-0.16 0.16,-0.36 0.19,-0.62 0.03,-0.25 0.05,-0.56 0.05,-0.92l0 -10.85c0,-0.35 -0.02,-0.65 -0.05,-0.9 -0.03,-0.25 -0.09,-0.46 -0.19,-0.62 -0.1,-0.16 -0.25,-0.28 -0.43,-0.35 -0.19,-0.07 -0.45,-0.1 -0.77,-0.1l0 -0.47 5.58 0 0 0.47c-0.33,0 -0.59,0.03 -0.78,0.1 -0.2,0.07 -0.34,0.19 -0.44,0.35 -0.11,0.16 -0.17,0.37 -0.2,0.62 -0.03,0.25 -0.05,0.55 -0.05,0.9l0 10.85c0,0.36 0.02,0.67 0.05,0.92 0.03,0.26 0.09,0.46 0.2,0.62 0.1,0.15 0.24,0.26 0.44,0.33 0.19,0.07 0.45,0.11 0.78,0.11zm18.97 -15.24c1.24,0 2.34,0.2 3.29,0.61 0.95,0.41 1.76,0.97 2.41,1.69 0.65,0.71 1.14,1.55 1.48,2.51 0.34,0.96 0.51,1.98 0.51,3.06 0,1.1 -0.17,2.13 -0.51,3.08 -0.34,0.95 -0.83,1.78 -1.48,2.49 -0.65,0.7 -1.46,1.26 -2.41,1.67 -0.95,0.41 -2.05,0.62 -3.29,0.62l-6.25 0 0 -0.47c0.33,0 0.59,-0.03 0.78,-0.1 0.2,-0.07 0.34,-0.18 0.44,-0.34 0.1,-0.15 0.17,-0.36 0.2,-0.61 0.03,-0.26 0.05,-0.57 0.05,-0.92l0 -10.83c0,-0.36 -0.02,-0.66 -0.05,-0.92 -0.03,-0.25 -0.1,-0.46 -0.2,-0.63 -0.1,-0.16 -0.24,-0.27 -0.44,-0.34 -0.19,-0.07 -0.45,-0.11 -0.78,-0.11l0 -0.46 6.25 0zm-2.11 13.29c0,0.35 0.01,0.66 0.05,0.92 0.03,0.25 0.09,0.46 0.19,0.61 0.1,0.16 0.25,0.27 0.44,0.34 0.2,0.07 0.46,0.1 0.78,0.1l0.65 0c0.98,0 1.79,-0.19 2.44,-0.58 0.65,-0.39 1.17,-0.91 1.55,-1.58 0.38,-0.66 0.65,-1.45 0.8,-2.34 0.15,-0.9 0.23,-1.86 0.23,-2.89 0,-1.02 -0.08,-1.98 -0.23,-2.88 -0.15,-0.9 -0.42,-1.68 -0.8,-2.36 -0.38,-0.67 -0.9,-1.2 -1.55,-1.59 -0.65,-0.39 -1.46,-0.58 -2.44,-0.58l-0.65 0c-0.32,0 -0.58,0.04 -0.78,0.11 -0.19,0.07 -0.34,0.18 -0.44,0.34 -0.1,0.17 -0.16,0.38 -0.19,0.63 -0.04,0.26 -0.05,0.56 -0.05,0.92l0 10.83zm24.07 -1.51c-0.17,0.04 -0.32,0.1 -0.43,0.16 -0.12,0.06 -0.22,0.2 -0.3,0.42l-0.32 0.9c-0.14,0.42 -0.23,0.76 -0.28,1.01 -0.05,0.26 -0.04,0.46 0.01,0.6 0.06,0.14 0.16,0.23 0.32,0.29 0.15,0.05 0.36,0.08 0.62,0.08l0 0.46 -3.2 0 0 -0.46c0.37,0 0.69,-0.05 0.95,-0.14 0.26,-0.09 0.46,-0.33 0.58,-0.7l5.11 -14.45 0.7 0 5.11 14.52c0.13,0.36 0.32,0.58 0.59,0.65 0.27,0.08 0.63,0.12 1.08,0.12l0 0.46 -5.6 0 0 -0.46c0.65,0 1.02,-0.13 1.11,-0.4 0.08,-0.26 -0.01,-0.79 -0.29,-1.58l-0.79 -2.27c-0.14,-0.31 -0.42,-0.42 -0.84,-0.33l-4.13 1.12zm2.67 -7.34c-0.1,-0.25 -0.2,-0.37 -0.32,-0.37 -0.11,0.01 -0.21,0.13 -0.29,0.37l-2.32 6.57c-0.03,0.09 -0.04,0.17 -0.02,0.24 0.01,0.07 0.14,0.08 0.37,0.02l3.95 -1.05c0.17,-0.05 0.3,-0.12 0.38,-0.23 0.09,-0.11 0.08,-0.31 -0.03,-0.61l-1.72 -4.94zm26.85 -4.44c1.24,0 2.34,0.2 3.29,0.61 0.95,0.41 1.75,0.97 2.4,1.69 0.66,0.71 1.15,1.55 1.49,2.51 0.34,0.96 0.51,1.98 0.51,3.06 0,1.1 -0.17,2.13 -0.51,3.08 -0.34,0.95 -0.83,1.78 -1.49,2.49 -0.65,0.7 -1.45,1.26 -2.4,1.67 -0.95,0.41 -2.05,0.62 -3.29,0.62l-6.25 0 0 -0.47c0.33,0 0.59,-0.03 0.78,-0.1 0.19,-0.07 0.34,-0.18 0.44,-0.34 0.1,-0.15 0.17,-0.36 0.2,-0.61 0.03,-0.26 0.05,-0.57 0.05,-0.92l0 -10.83c0,-0.36 -0.02,-0.66 -0.05,-0.92 -0.03,-0.25 -0.1,-0.46 -0.2,-0.63 -0.1,-0.16 -0.25,-0.27 -0.44,-0.34 -0.19,-0.07 -0.45,-0.11 -0.78,-0.11l0 -0.46 6.25 0zm-2.11 13.29c0,0.35 0.01,0.66 0.04,0.92 0.03,0.25 0.1,0.46 0.2,0.61 0.1,0.16 0.25,0.27 0.44,0.34 0.2,0.07 0.46,0.1 0.78,0.1l0.65 0c0.98,0 1.79,-0.19 2.44,-0.58 0.65,-0.39 1.17,-0.91 1.55,-1.58 0.38,-0.66 0.64,-1.45 0.8,-2.34 0.15,-0.9 0.23,-1.86 0.23,-2.89 0,-1.02 -0.08,-1.98 -0.23,-2.88 -0.16,-0.9 -0.42,-1.68 -0.8,-2.36 -0.38,-0.67 -0.9,-1.2 -1.55,-1.59 -0.65,-0.39 -1.46,-0.58 -2.44,-0.58l-0.65 0c-0.32,0 -0.58,0.04 -0.78,0.11 -0.19,0.07 -0.34,0.18 -0.44,0.34 -0.1,0.17 -0.17,0.38 -0.2,0.63 -0.03,0.26 -0.04,0.56 -0.04,0.92l0 10.83zm32.82 -13.29c0.05,0.48 0.1,0.95 0.14,1.43 0.05,0.47 0.1,0.95 0.17,1.45l-0.54 0c-0.03,-0.28 -0.1,-0.56 -0.2,-0.85 -0.1,-0.29 -0.25,-0.55 -0.45,-0.78 -0.2,-0.23 -0.46,-0.42 -0.77,-0.57 -0.31,-0.15 -0.68,-0.22 -1.11,-0.22l-2.51 0c-0.33,0 -0.58,0.04 -0.77,0.11 -0.18,0.07 -0.33,0.19 -0.43,0.35 -0.1,0.16 -0.16,0.37 -0.19,0.62 -0.04,0.25 -0.05,0.55 -0.05,0.91l0 3.93c0,0.11 0.04,0.21 0.11,0.3 0.08,0.08 0.18,0.13 0.31,0.13l0.69 0c0.47,0 0.85,-0.06 1.15,-0.16 0.31,-0.1 0.54,-0.24 0.7,-0.41 0.16,-0.18 0.28,-0.39 0.34,-0.62 0.06,-0.23 0.09,-0.49 0.09,-0.77l0.54 0 0 4.37 -0.54 0c0,-0.28 -0.03,-0.54 -0.09,-0.78 -0.06,-0.24 -0.18,-0.44 -0.34,-0.61 -0.16,-0.17 -0.39,-0.31 -0.7,-0.41 -0.3,-0.1 -0.68,-0.15 -1.15,-0.15l-0.69 0c-0.13,0 -0.23,0.04 -0.31,0.13 -0.07,0.08 -0.11,0.18 -0.11,0.29l0 5.64c0,0.36 0.01,0.66 0.05,0.91 0.03,0.24 0.09,0.45 0.19,0.6 0.1,0.16 0.25,0.27 0.43,0.34 0.19,0.07 0.44,0.11 0.77,0.11l2.51 0c0.43,0 0.8,-0.08 1.11,-0.23 0.31,-0.14 0.57,-0.33 0.77,-0.56 0.2,-0.24 0.35,-0.5 0.45,-0.78 0.1,-0.29 0.17,-0.57 0.2,-0.85l0.54 0c-0.07,0.5 -0.12,0.98 -0.17,1.45 -0.04,0.47 -0.09,0.95 -0.14,1.43l-10.85 0 0 -0.46c0.33,0 0.59,-0.04 0.78,-0.11 0.19,-0.07 0.34,-0.18 0.44,-0.34 0.1,-0.15 0.17,-0.36 0.2,-0.6 0.03,-0.25 0.05,-0.55 0.05,-0.91l0 -10.89c0,-0.36 -0.02,-0.66 -0.05,-0.92 -0.03,-0.25 -0.1,-0.46 -0.2,-0.62 -0.1,-0.15 -0.25,-0.26 -0.44,-0.33 -0.19,-0.07 -0.45,-0.11 -0.78,-0.11l0 -0.46 10.85 0z"/>
  </g>
 </g>
</svg>
