<?xml version="1.0" encoding="UTF-8"?>
<!DOCTYPE svg PUBLIC "-//W3C//DTD SVG 1.1//EN" "http://www.w3.org/Graphics/SVG/1.1/DTD/svg11.dtd">
<!-- Creator: CorelDRAW 2019 (64 Bit) -->
<svg xmlns="http://www.w3.org/2000/svg" xml:space="preserve" width="794px" height="793px" version="1.1" style="shape-rendering:geometricPrecision; text-rendering:geometricPrecision; image-rendering:optimizeQuality; fill-rule:evenodd; clip-rule:evenodd"
viewBox="0 0 175.64 175.38"
 xmlns:xlink="http://www.w3.org/1999/xlink">
 <defs>
  <style type="text/css">
   <![CDATA[
    .fil5 {fill:none}
    .fil0 {fill:#ED3237}
    .fil1 {fill:#273C75}
    .fil2 {fill:#ED3237;fill-rule:nonzero}
    .fil4 {fill:#273C75;fill-rule:nonzero}
    .fil3 {fill:url(#id0)}
   ]]>
  </style>
  <linearGradient id="id0" gradientUnits="userSpaceOnUse" x1="111.52" y1="60.58" x2="100.56" y2="35.84">
   <stop offset="0" style="stop-opacity:1; stop-color:#ED3237"/>
   <stop offset="1" style="stop-opacity:1; stop-color:#892F30"/>
  </linearGradient>
 </defs>
 <g id="Camada_x0020_1">
  <metadata id="CorelCorpID_0Corel-Layer"/>
  <g id="_841757088">
   <path class="fil0" d="M118.82 15.79c11.94,4.38 21.03,12.21 25.01,22.91 5.89,15.84 -0.87,34.12 -15.91,48.64l1.02 2.59c-3.51,2.86 -7.23,5.6 -11.15,8.19l-0.76 -1.94c-6.3,4.31 -13.47,8.03 -21.32,10.9 -22.69,8.3 -45.64,7.53 -61.74,-0.44 9.43,3.45 20.63,4.75 32.48,3.61l24.4 -65.49c0.64,-1.73 2.27,-6.16 0.51,-6.95l17.08 0.01 17.28 43.93c12.77,-13.93 18.17,-30.69 12.71,-45.37 -3.35,-9.02 -10.34,-16 -19.61,-20.59zm14.75 85.92l6.1 15.51c1.03,2.63 2.33,3.84 3.68,4.76l-16.21 0 -4.95 -12.64c3.96,-2.41 7.76,-4.96 11.38,-7.63zm-52.51 5.95c3.08,-0.8 6.17,-1.76 9.26,-2.89 9.34,-3.42 17.71,-8.03 24.82,-13.43l-13.84 -35.35 -20.24 51.67z"/>
   <path class="fil1" d="M66.84 14.23c39.51,-14.95 79.76,-4.18 89.9,24.07 10.15,28.24 -13.66,63.26 -53.18,78.21 -39.51,14.95 -79.76,4.18 -89.9,-24.07 -3.81,-10.59 -2.83,-22.14 1.95,-33.22 -3.98,9.79 -4.67,19.91 -1.27,29.24 9.46,25.96 47.02,35.86 83.88,22.12 36.86,-13.75 59.08,-45.93 49.62,-71.89 -9.47,-25.96 -47.02,-35.87 -83.89,-22.12 -13.31,4.96 -24.71,12.33 -33.4,20.94 9.37,-9.58 21.77,-17.79 36.29,-23.28z"/>
   <path class="fil2" d="M38.69 148.87c-0.32,0.08 -0.59,0.18 -0.8,0.3 -0.22,0.12 -0.4,0.38 -0.54,0.78l-0.61 1.69c-0.26,0.78 -0.43,1.41 -0.52,1.89 -0.09,0.47 -0.08,0.84 0.02,1.1 0.1,0.26 0.3,0.44 0.59,0.54 0.28,0.1 0.68,0.15 1.17,0.15l0 0.87 -5.99 0 0 -0.87c0.7,0 1.29,-0.08 1.78,-0.26 0.49,-0.17 0.85,-0.6 1.09,-1.3l9.53 -26.96 1.3 0 9.54 27.09c0.23,0.67 0.6,1.07 1.1,1.22 0.51,0.14 1.18,0.21 2.02,0.21l0 0.87 -10.45 0 0 -0.87c1.22,0 1.9,-0.24 2.06,-0.73 0.16,-0.49 -0.02,-1.48 -0.54,-2.95l-1.47 -4.25c-0.26,-0.58 -0.78,-0.78 -1.56,-0.6l-7.72 2.08zm4.98 -13.7c-0.17,-0.46 -0.36,-0.69 -0.58,-0.67 -0.22,0.01 -0.4,0.23 -0.54,0.67l-4.34 12.27c-0.05,0.17 -0.07,0.32 -0.04,0.45 0.03,0.13 0.26,0.14 0.69,0.02l7.37 -1.95c0.32,-0.08 0.56,-0.23 0.72,-0.43 0.16,-0.2 0.13,-0.58 -0.07,-1.13l-3.21 -9.23zm28.53 -8.28c2.31,0 4.35,0.38 6.13,1.15 1.78,0.76 3.27,1.81 4.49,3.14 1.21,1.33 2.14,2.89 2.77,4.68 0.64,1.79 0.96,3.7 0.96,5.72 0,2.06 -0.32,3.97 -0.96,5.75 -0.63,1.77 -1.56,3.32 -2.77,4.64 -1.22,1.31 -2.71,2.35 -4.49,3.12 -1.78,0.76 -3.82,1.15 -6.13,1.15l-11.66 0 0 -0.87c0.6,0 1.09,-0.07 1.45,-0.2 0.36,-0.13 0.64,-0.34 0.82,-0.63 0.19,-0.28 0.31,-0.67 0.37,-1.14 0.06,-0.48 0.09,-1.05 0.09,-1.72l0 -20.2c0,-0.66 -0.03,-1.23 -0.09,-1.71 -0.06,-0.48 -0.18,-0.87 -0.37,-1.17 -0.18,-0.3 -0.46,-0.52 -0.82,-0.65 -0.36,-0.13 -0.85,-0.19 -1.45,-0.19l0 -0.87 11.66 0zm-3.95 24.79c0,0.67 0.03,1.24 0.09,1.72 0.06,0.47 0.18,0.86 0.37,1.14 0.19,0.29 0.46,0.5 0.82,0.63 0.36,0.13 0.85,0.2 1.45,0.2l1.22 0c1.82,0 3.34,-0.36 4.55,-1.09 1.21,-0.72 2.17,-1.7 2.88,-2.94 0.71,-1.25 1.21,-2.71 1.5,-4.38 0.29,-1.68 0.43,-3.47 0.43,-5.38 0,-1.9 -0.14,-3.7 -0.43,-5.37 -0.29,-1.68 -0.79,-3.14 -1.5,-4.4 -0.71,-1.26 -1.67,-2.25 -2.88,-2.97 -1.21,-0.72 -2.73,-1.08 -4.55,-1.08l-1.22 0c-0.6,0 -1.09,0.06 -1.45,0.19 -0.36,0.13 -0.63,0.35 -0.82,0.65 -0.19,0.3 -0.31,0.69 -0.37,1.17 -0.06,0.48 -0.09,1.05 -0.09,1.71l0 20.2zm23.32 -2.81c-0.31,0.08 -0.58,0.18 -0.8,0.3 -0.21,0.12 -0.39,0.38 -0.54,0.78l-0.61 1.69c-0.26,0.78 -0.43,1.41 -0.52,1.89 -0.08,0.47 -0.08,0.84 0.03,1.1 0.1,0.26 0.29,0.44 0.58,0.54 0.29,0.1 0.68,0.15 1.17,0.15l0 0.87 -5.98 0 0 -0.87c0.69,0 1.28,-0.08 1.78,-0.26 0.49,-0.17 0.85,-0.6 1.08,-1.3l9.54 -26.96 1.3 0 9.53 27.09c0.23,0.67 0.6,1.07 1.11,1.22 0.5,0.14 1.18,0.21 2.01,0.21l0 0.87 -10.44 0 0 -0.87c1.21,0 1.9,-0.24 2.06,-0.73 0.16,-0.49 -0.02,-1.48 -0.55,-2.95l-1.47 -4.25c-0.26,-0.58 -0.78,-0.78 -1.56,-0.6l-7.72 2.08zm4.99 -13.7c-0.17,-0.46 -0.37,-0.69 -0.59,-0.67 -0.21,0.01 -0.39,0.23 -0.54,0.67l-4.33 12.27c-0.06,0.17 -0.07,0.32 -0.05,0.45 0.03,0.13 0.26,0.14 0.7,0.02l7.37 -1.95c0.31,-0.08 0.55,-0.23 0.71,-0.43 0.16,-0.2 0.14,-0.58 -0.06,-1.13l-3.21 -9.23zm26.99 -8.32c0.66,0 1.4,0 2.2,0.02 0.81,0.01 1.63,0.09 2.47,0.24 0.84,0.14 1.65,0.36 2.42,0.67 0.78,0.3 1.47,0.73 2.08,1.28 0.6,0.55 1.09,1.26 1.47,2.14 0.37,0.88 0.56,1.96 0.56,3.23 0,1.01 -0.17,1.98 -0.5,2.91 -0.33,0.92 -0.83,1.73 -1.49,2.42 -0.67,0.7 -1.51,1.25 -2.52,1.65 -1.01,0.4 -2.2,0.61 -3.55,0.61l-4.77 0c-0.23,0 -0.42,0.08 -0.57,0.26 -0.14,0.17 -0.21,0.34 -0.21,0.52l0 8.84c0,0.67 0.03,1.24 0.08,1.71 0.06,0.48 0.18,0.86 0.35,1.15 0.17,0.29 0.44,0.5 0.8,0.63 0.36,0.13 0.85,0.19 1.46,0.19l0 0.87 -10.41 0 0 -0.87c0.61,0 1.09,-0.06 1.45,-0.19 0.37,-0.13 0.64,-0.34 0.83,-0.63 0.19,-0.29 0.31,-0.67 0.37,-1.15 0.05,-0.47 0.08,-1.04 0.08,-1.71l0 -20.24c0,-0.67 -0.03,-1.23 -0.08,-1.69 -0.06,-0.47 -0.18,-0.85 -0.37,-1.15 -0.19,-0.31 -0.46,-0.52 -0.83,-0.65 -0.36,-0.13 -0.84,-0.2 -1.45,-0.2l0 -0.86 10.13 0zm-2.41 13.52c0,0.2 0.07,0.38 0.21,0.54 0.15,0.16 0.34,0.24 0.58,0.24l1.43 0c0.84,0 1.65,-0.12 2.42,-0.37 0.77,-0.24 1.45,-0.63 2.05,-1.17 0.59,-0.53 1.06,-1.23 1.41,-2.08 0.35,-0.85 0.52,-1.88 0.52,-3.1 0,-1.33 -0.21,-2.43 -0.62,-3.29 -0.43,-0.87 -0.95,-1.55 -1.57,-2.04 -0.63,-0.49 -1.3,-0.84 -2.03,-1.04 -0.72,-0.2 -1.38,-0.32 -1.96,-0.35 -0.56,0.03 -0.99,0.12 -1.31,0.26 -0.32,0.15 -0.57,0.36 -0.74,0.65 -0.18,0.29 -0.28,0.67 -0.33,1.13 -0.04,0.46 -0.06,1.01 -0.06,1.65l0 8.97zm42.52 -13.44c0.09,0.9 0.18,1.79 0.28,2.69 0.11,0.9 0.2,1.79 0.29,2.69l-1 0c-0.06,-0.52 -0.19,-1.05 -0.39,-1.58 -0.2,-0.54 -0.49,-1.02 -0.87,-1.46 -0.37,-0.43 -0.85,-0.78 -1.43,-1.06 -0.58,-0.27 -1.27,-0.41 -2.08,-0.41l-2.69 0c-0.6,0 -1.09,0.06 -1.45,0.19 -0.36,0.13 -0.63,0.35 -0.8,0.65 -0.17,0.31 -0.29,0.7 -0.35,1.17 -0.06,0.48 -0.08,1.05 -0.08,1.72l0 20.2c0,0.66 0.02,1.23 0.08,1.69 0.06,0.46 0.18,0.84 0.35,1.15 0.17,0.3 0.44,0.52 0.8,0.65 0.36,0.13 0.85,0.19 1.45,0.19l0 0.87 -10.36 0 0 -0.87c0.61,0 1.09,-0.06 1.45,-0.19 0.37,-0.13 0.63,-0.35 0.81,-0.65 0.17,-0.31 0.29,-0.69 0.34,-1.15 0.06,-0.46 0.09,-1.03 0.09,-1.69l0 -20.2c0,-0.67 -0.03,-1.24 -0.09,-1.72 -0.05,-0.47 -0.17,-0.86 -0.34,-1.17 -0.18,-0.3 -0.44,-0.52 -0.81,-0.65 -0.36,-0.13 -0.84,-0.19 -1.45,-0.19l-2.73 0c-0.81,0 -1.5,0.14 -2.08,0.41 -0.58,0.28 -1.05,0.63 -1.43,1.06 -0.38,0.44 -0.66,0.92 -0.84,1.46 -0.19,0.53 -0.32,1.06 -0.37,1.58l-1 0c0.09,-0.9 0.18,-1.79 0.28,-2.69 0.1,-0.9 0.2,-1.79 0.28,-2.69l26.14 0z"/>
   <polygon class="fil3" points="94.15,37.81 108.44,37.82 118.16,62.53 103.81,62.42 "/>
   <path class="fil4" d="M35.03 161.03c0.61,0 1.11,0.11 1.5,0.35 0.15,0.07 0.27,0.13 0.36,0.16 0.1,0.03 0.17,0.03 0.23,0 0.05,-0.02 0.09,-0.08 0.1,-0.16 0.02,-0.08 0.03,-0.2 0.03,-0.35l0.23 0 0 1.86 -0.23 0c0,-0.29 -0.1,-0.56 -0.28,-0.82 -0.19,-0.25 -0.42,-0.45 -0.7,-0.59 -0.34,-0.17 -0.75,-0.25 -1.24,-0.25 -0.36,0 -0.68,0.08 -0.95,0.25 -0.27,0.17 -0.5,0.4 -0.68,0.69 -0.19,0.3 -0.32,0.64 -0.41,1.03 -0.09,0.39 -0.14,0.81 -0.14,1.25 0,0.45 0.03,0.87 0.1,1.26 0.07,0.39 0.18,0.73 0.35,1.02 0.17,0.3 0.39,0.53 0.67,0.7 0.29,0.16 0.64,0.25 1.06,0.25 1.08,0 1.82,-0.43 2.21,-1.3l0.25 0c-0.19,0.46 -0.48,0.82 -0.87,1.09 -0.39,0.27 -0.92,0.41 -1.59,0.41 -0.54,0 -1.01,-0.09 -1.43,-0.27 -0.42,-0.18 -0.77,-0.42 -1.05,-0.73 -0.29,-0.31 -0.5,-0.67 -0.64,-1.09 -0.15,-0.42 -0.22,-0.86 -0.22,-1.34 0,-0.47 0.07,-0.91 0.22,-1.33 0.14,-0.42 0.35,-0.78 0.64,-1.09 0.28,-0.31 0.63,-0.56 1.05,-0.74 0.42,-0.17 0.89,-0.26 1.43,-0.26zm11.34 0c0.54,0 1.01,0.09 1.43,0.26 0.41,0.18 0.76,0.43 1.04,0.74 0.28,0.32 0.5,0.68 0.65,1.1 0.15,0.42 0.22,0.86 0.22,1.33 0,0.48 -0.07,0.92 -0.22,1.34 -0.15,0.42 -0.37,0.78 -0.65,1.09 -0.28,0.31 -0.63,0.55 -1.04,0.73 -0.42,0.18 -0.89,0.27 -1.43,0.27 -0.54,0 -1.02,-0.09 -1.43,-0.27 -0.41,-0.18 -0.76,-0.42 -1.05,-0.73 -0.28,-0.31 -0.49,-0.67 -0.64,-1.09 -0.15,-0.42 -0.22,-0.86 -0.22,-1.34 0,-0.47 0.07,-0.91 0.22,-1.33 0.15,-0.42 0.36,-0.78 0.64,-1.1 0.29,-0.31 0.64,-0.56 1.05,-0.74 0.41,-0.17 0.89,-0.26 1.43,-0.26zm2.18 3.43c0,-0.44 -0.04,-0.86 -0.1,-1.25 -0.07,-0.4 -0.19,-0.74 -0.35,-1.03 -0.17,-0.3 -0.39,-0.53 -0.67,-0.7 -0.28,-0.17 -0.64,-0.25 -1.06,-0.25 -0.43,0 -0.78,0.08 -1.06,0.25 -0.28,0.17 -0.5,0.4 -0.67,0.7 -0.17,0.29 -0.28,0.63 -0.35,1.03 -0.07,0.39 -0.1,0.81 -0.1,1.25 0,0.45 0.03,0.87 0.1,1.26 0.07,0.38 0.18,0.73 0.35,1.02 0.17,0.29 0.39,0.53 0.67,0.7 0.28,0.16 0.63,0.25 1.06,0.25 0.42,0 0.78,-0.09 1.06,-0.25 0.28,-0.17 0.5,-0.41 0.67,-0.7 0.16,-0.29 0.28,-0.64 0.35,-1.02 0.06,-0.39 0.1,-0.81 0.1,-1.26zm11.3 1.05c0.1,0.15 0.17,0.21 0.22,0.19 0.05,-0.02 0.08,-0.08 0.08,-0.17l0 -3.45c0,-0.18 -0.01,-0.33 -0.03,-0.45 -0.02,-0.11 -0.05,-0.2 -0.1,-0.26 -0.04,-0.06 -0.1,-0.1 -0.18,-0.12 -0.08,-0.02 -0.17,-0.03 -0.29,-0.03l0 -0.2 1.4 0 0 0.2c-0.12,0 -0.21,0.01 -0.29,0.03 -0.08,0.02 -0.14,0.06 -0.18,0.12 -0.05,0.06 -0.08,0.15 -0.1,0.26 -0.02,0.12 -0.03,0.27 -0.03,0.45l0 5.78 -0.3 0 -3.92 -5.5c-0.11,-0.14 -0.19,-0.2 -0.24,-0.17 -0.04,0.03 -0.07,0.09 -0.07,0.18l0 4.43c0,0.19 0.01,0.34 0.03,0.45 0.02,0.11 0.05,0.2 0.1,0.26 0.04,0.06 0.1,0.1 0.18,0.12 0.08,0.02 0.17,0.03 0.29,0.03l0 0.2 -1.4 0 0 -0.2c0.12,0 0.21,-0.01 0.29,-0.03 0.07,-0.02 0.13,-0.06 0.18,-0.12 0.05,-0.06 0.08,-0.15 0.1,-0.26 0.01,-0.11 0.02,-0.26 0.02,-0.45l0 -4.72c0,-0.31 -0.04,-0.53 -0.11,-0.66 -0.07,-0.14 -0.23,-0.2 -0.48,-0.2l0 -0.2 1.61 0 3.22 4.49zm12.86 -4.47c0.02,0.21 0.04,0.41 0.07,0.62 0.02,0.21 0.04,0.42 0.06,0.63l-0.23 0c-0.01,-0.12 -0.04,-0.24 -0.09,-0.37 -0.05,-0.12 -0.11,-0.24 -0.2,-0.34 -0.09,-0.1 -0.2,-0.18 -0.34,-0.25 -0.13,-0.06 -0.29,-0.09 -0.48,-0.09l-0.63 0c-0.14,0 -0.25,0.01 -0.34,0.04 -0.08,0.03 -0.14,0.09 -0.18,0.16 -0.04,0.07 -0.07,0.16 -0.08,0.27 -0.02,0.11 -0.02,0.24 -0.02,0.4l0 4.71c0,0.15 0,0.29 0.02,0.39 0.01,0.11 0.04,0.2 0.08,0.27 0.04,0.07 0.1,0.12 0.18,0.15 0.09,0.03 0.2,0.05 0.34,0.05l0 0.2 -2.41 0 0 -0.2c0.14,0 0.25,-0.02 0.33,-0.05 0.09,-0.03 0.15,-0.08 0.19,-0.15 0.04,-0.07 0.07,-0.16 0.08,-0.27 0.02,-0.1 0.02,-0.24 0.02,-0.39l0 -4.71c0,-0.16 0,-0.29 -0.02,-0.4 -0.01,-0.11 -0.04,-0.2 -0.08,-0.27 -0.04,-0.07 -0.1,-0.13 -0.19,-0.16 -0.08,-0.03 -0.19,-0.04 -0.33,-0.04l-0.64 0c-0.19,0 -0.35,0.03 -0.49,0.09 -0.13,0.07 -0.24,0.15 -0.33,0.25 -0.09,0.1 -0.15,0.22 -0.2,0.34 -0.04,0.13 -0.07,0.25 -0.08,0.37l-0.24 0c0.03,-0.21 0.05,-0.42 0.07,-0.63 0.02,-0.21 0.05,-0.41 0.07,-0.62l6.09 0zm5.69 5.11c-0.07,0.02 -0.14,0.05 -0.19,0.07 -0.05,0.03 -0.09,0.09 -0.12,0.18l-0.14 0.4c-0.06,0.18 -0.11,0.33 -0.13,0.44 -0.02,0.11 -0.01,0.2 0.01,0.26 0.02,0.06 0.07,0.1 0.14,0.12 0.06,0.03 0.15,0.04 0.27,0.04l0 0.2 -1.4 0 0 -0.2c0.17,0 0.3,-0.02 0.42,-0.06 0.11,-0.04 0.2,-0.14 0.25,-0.31l2.23 -6.28 0.3 0 2.22 6.31c0.06,0.16 0.14,0.25 0.26,0.29 0.12,0.03 0.27,0.05 0.47,0.05l0 0.2 -2.44 0 0 -0.2c0.29,0 0.45,-0.06 0.48,-0.17 0.04,-0.12 0,-0.35 -0.12,-0.69l-0.35 -0.99c-0.06,-0.14 -0.18,-0.18 -0.36,-0.14l-1.8 0.48zm1.16 -3.19c-0.04,-0.11 -0.08,-0.16 -0.13,-0.16 -0.05,0 -0.1,0.06 -0.13,0.16l-1.01 2.86c-0.01,0.04 -0.02,0.07 -0.01,0.1 0.01,0.03 0.06,0.04 0.16,0.01l1.72 -0.46c0.07,-0.02 0.13,-0.05 0.17,-0.1 0.03,-0.04 0.03,-0.13 -0.02,-0.26l-0.75 -2.15zm11.4 -1.93c0.33,0 0.64,0.01 0.95,0.03 0.31,0.03 0.58,0.09 0.81,0.19 0.24,0.1 0.43,0.26 0.57,0.47 0.14,0.21 0.21,0.51 0.21,0.88 0,0.23 -0.04,0.43 -0.12,0.61 -0.07,0.18 -0.18,0.34 -0.3,0.48 -0.13,0.14 -0.28,0.25 -0.44,0.34 -0.17,0.09 -0.34,0.16 -0.51,0.21 0.31,-0.08 0.6,-0.08 0.86,0 0.26,0.08 0.48,0.21 0.66,0.4 0.18,0.19 0.33,0.4 0.43,0.65 0.1,0.25 0.15,0.5 0.15,0.75 0,0.43 -0.08,0.77 -0.22,1.02 -0.15,0.24 -0.36,0.43 -0.63,0.55 -0.26,0.12 -0.58,0.19 -0.94,0.22 -0.36,0.03 -0.76,0.04 -1.18,0.04l-2.73 0 0 -0.2c0.14,0 0.25,-0.02 0.34,-0.05 0.08,-0.03 0.14,-0.08 0.19,-0.14 0.04,-0.07 0.07,-0.16 0.08,-0.27 0.02,-0.11 0.02,-0.25 0.02,-0.4l0 -4.71c0,-0.16 0,-0.29 -0.02,-0.4 -0.01,-0.11 -0.04,-0.2 -0.08,-0.27 -0.05,-0.08 -0.11,-0.13 -0.19,-0.16 -0.09,-0.03 -0.2,-0.04 -0.34,-0.04l0 -0.2 2.43 0zm-0.63 3.35c0,0.05 0.01,0.09 0.05,0.11 0.04,0.03 0.08,0.04 0.14,0.02l0.34 -0.09c0.18,-0.04 0.36,-0.11 0.54,-0.2 0.18,-0.1 0.34,-0.21 0.48,-0.34 0.14,-0.13 0.25,-0.29 0.33,-0.47 0.09,-0.18 0.13,-0.39 0.13,-0.62 0,-0.54 -0.13,-0.93 -0.38,-1.18 -0.25,-0.24 -0.6,-0.37 -1.05,-0.38 -0.13,0.01 -0.24,0.03 -0.32,0.06 -0.07,0.03 -0.13,0.09 -0.17,0.16 -0.04,0.07 -0.07,0.16 -0.08,0.26 -0.01,0.11 -0.01,0.24 -0.01,0.39l0 2.28zm0 2.43c0,0.15 0,0.29 0.02,0.4 0.01,0.11 0.04,0.2 0.08,0.27 0.05,0.06 0.11,0.11 0.19,0.14 0.08,0.03 0.19,0.05 0.33,0.05l0.31 0c0.29,0 0.54,-0.02 0.77,-0.06 0.23,-0.03 0.41,-0.11 0.57,-0.23 0.15,-0.12 0.26,-0.28 0.34,-0.5 0.09,-0.21 0.13,-0.49 0.13,-0.84 0,-0.3 -0.07,-0.55 -0.2,-0.76 -0.12,-0.21 -0.29,-0.38 -0.5,-0.5 -0.21,-0.12 -0.45,-0.2 -0.71,-0.23 -0.27,-0.02 -0.54,0 -0.81,0.08l-0.33 0.09c-0.13,0.03 -0.19,0.11 -0.19,0.25l0 1.84zm11.5 0.85l0 0.2 -2.43 0 0 -0.2c0.14,0 0.25,-0.02 0.34,-0.05 0.08,-0.03 0.14,-0.08 0.18,-0.14 0.05,-0.07 0.08,-0.16 0.09,-0.27 0.01,-0.11 0.02,-0.25 0.02,-0.4l0 -4.72c0,-0.16 -0.01,-0.29 -0.02,-0.4 -0.01,-0.1 -0.04,-0.19 -0.09,-0.26 -0.04,-0.07 -0.1,-0.13 -0.18,-0.16 -0.09,-0.03 -0.2,-0.04 -0.34,-0.04l0 -0.2 2.43 0 0 0.2c-0.14,0 -0.26,0.01 -0.34,0.04 -0.08,0.03 -0.15,0.09 -0.19,0.16 -0.05,0.07 -0.07,0.16 -0.09,0.26 -0.01,0.11 -0.02,0.24 -0.02,0.4l0 4.72c0,0.15 0.01,0.29 0.02,0.4 0.02,0.11 0.04,0.2 0.09,0.27 0.04,0.06 0.11,0.11 0.19,0.14 0.08,0.03 0.2,0.05 0.34,0.05zm9.05 0c0.19,0 0.35,-0.03 0.49,-0.1 0.13,-0.06 0.24,-0.14 0.33,-0.25 0.09,-0.1 0.16,-0.21 0.2,-0.33 0.04,-0.13 0.07,-0.25 0.08,-0.37l0.24 0 -0.13 1.25 -4.72 0 0 -0.2c0.14,0 0.25,-0.02 0.33,-0.05 0.09,-0.03 0.15,-0.08 0.2,-0.14 0.04,-0.07 0.07,-0.16 0.08,-0.27 0.02,-0.11 0.02,-0.25 0.02,-0.4l0 -4.72c0,-0.16 0,-0.29 -0.02,-0.4 -0.01,-0.1 -0.04,-0.19 -0.08,-0.26 -0.05,-0.07 -0.11,-0.13 -0.2,-0.16 -0.08,-0.03 -0.19,-0.04 -0.33,-0.04l0 -0.2 2.43 0 0 0.2c-0.14,0 -0.25,0.01 -0.34,0.04 -0.08,0.03 -0.15,0.09 -0.19,0.16 -0.04,0.07 -0.07,0.16 -0.09,0.26 -0.01,0.11 -0.02,0.24 -0.02,0.4l0 4.72c0,0.15 0.01,0.29 0.02,0.4 0.02,0.11 0.05,0.2 0.09,0.27 0.04,0.06 0.11,0.11 0.19,0.14 0.09,0.03 0.2,0.05 0.34,0.05l1.08 0zm9.29 0l0 0.2 -2.43 0 0 -0.2c0.15,0 0.26,-0.02 0.34,-0.05 0.08,-0.03 0.14,-0.08 0.19,-0.14 0.04,-0.07 0.07,-0.16 0.08,-0.27 0.01,-0.11 0.02,-0.25 0.02,-0.4l0 -4.72c0,-0.16 -0.01,-0.29 -0.02,-0.4 -0.01,-0.1 -0.04,-0.19 -0.08,-0.26 -0.05,-0.07 -0.11,-0.13 -0.19,-0.16 -0.08,-0.03 -0.19,-0.04 -0.34,-0.04l0 -0.2 2.43 0 0 0.2c-0.14,0 -0.25,0.01 -0.34,0.04 -0.08,0.03 -0.15,0.09 -0.19,0.16 -0.04,0.07 -0.07,0.16 -0.09,0.26 -0.01,0.11 -0.02,0.24 -0.02,0.4l0 4.72c0,0.15 0.01,0.29 0.02,0.4 0.02,0.11 0.05,0.2 0.09,0.27 0.04,0.06 0.11,0.11 0.19,0.14 0.09,0.03 0.2,0.05 0.34,0.05zm8.26 -6.63c0.54,0 1.01,0.09 1.43,0.26 0.41,0.18 0.76,0.43 1.04,0.74 0.29,0.31 0.5,0.67 0.65,1.09 0.15,0.42 0.22,0.86 0.22,1.33 0,0.48 -0.07,0.93 -0.22,1.34 -0.15,0.42 -0.36,0.78 -0.65,1.08 -0.28,0.31 -0.63,0.55 -1.04,0.73 -0.42,0.18 -0.89,0.27 -1.43,0.27l-2.72 0 0 -0.2c0.14,0 0.25,-0.02 0.34,-0.05 0.08,-0.03 0.14,-0.08 0.19,-0.14 0.04,-0.07 0.07,-0.16 0.08,-0.27 0.02,-0.11 0.02,-0.25 0.02,-0.4l0 -4.71c0,-0.16 0,-0.29 -0.02,-0.4 -0.01,-0.11 -0.04,-0.2 -0.08,-0.27 -0.05,-0.08 -0.11,-0.13 -0.19,-0.16 -0.09,-0.03 -0.2,-0.04 -0.34,-0.04l0 -0.2 2.72 0zm-0.92 5.78c0,0.15 0,0.29 0.02,0.4 0.01,0.11 0.04,0.2 0.08,0.27 0.05,0.06 0.11,0.11 0.2,0.14 0.08,0.03 0.19,0.05 0.33,0.05l0.29 0c0.42,0 0.78,-0.09 1.06,-0.25 0.28,-0.17 0.51,-0.4 0.67,-0.69 0.17,-0.29 0.28,-0.63 0.35,-1.02 0.07,-0.39 0.1,-0.81 0.1,-1.26 0,-0.44 -0.03,-0.86 -0.1,-1.25 -0.07,-0.39 -0.18,-0.73 -0.35,-1.03 -0.16,-0.29 -0.39,-0.52 -0.67,-0.69 -0.28,-0.17 -0.64,-0.25 -1.06,-0.25l-0.29 0c-0.14,0 -0.25,0.01 -0.33,0.04 -0.09,0.03 -0.15,0.08 -0.2,0.16 -0.04,0.07 -0.07,0.16 -0.08,0.27 -0.02,0.11 -0.02,0.24 -0.02,0.4l0 4.71zm10.47 -0.66c-0.08,0.02 -0.14,0.05 -0.19,0.07 -0.05,0.03 -0.09,0.09 -0.13,0.18l-0.14 0.4c-0.06,0.18 -0.1,0.33 -0.12,0.44 -0.02,0.11 -0.02,0.2 0.01,0.26 0.02,0.06 0.07,0.1 0.13,0.12 0.07,0.03 0.16,0.04 0.28,0.04l0 0.2 -1.4 0 0 -0.2c0.16,0 0.3,-0.02 0.42,-0.06 0.11,-0.04 0.19,-0.14 0.25,-0.31l2.22 -6.28 0.31 0 2.22 6.31c0.05,0.16 0.14,0.25 0.26,0.29 0.11,0.03 0.27,0.05 0.47,0.05l0 0.2 -2.44 0 0 -0.2c0.28,0 0.44,-0.06 0.48,-0.17 0.04,-0.12 0,-0.35 -0.13,-0.69l-0.34 -0.99c-0.06,-0.14 -0.18,-0.18 -0.36,-0.14l-1.8 0.48zm1.16 -3.19c-0.04,-0.11 -0.09,-0.16 -0.14,-0.16 -0.05,0 -0.09,0.06 -0.12,0.16l-1.01 2.86c-0.02,0.04 -0.02,0.07 -0.01,0.1 0,0.03 0.06,0.04 0.16,0.01l1.72 -0.46c0.07,-0.02 0.13,-0.05 0.16,-0.1 0.04,-0.04 0.04,-0.13 -0.01,-0.26l-0.75 -2.15zm11.68 -1.93c0.54,0 1.02,0.09 1.43,0.26 0.42,0.18 0.77,0.43 1.05,0.74 0.28,0.31 0.5,0.67 0.65,1.09 0.15,0.42 0.22,0.86 0.22,1.33 0,0.48 -0.07,0.93 -0.22,1.34 -0.15,0.42 -0.37,0.78 -0.65,1.08 -0.28,0.31 -0.63,0.55 -1.05,0.73 -0.41,0.18 -0.89,0.27 -1.43,0.27l-2.72 0 0 -0.2c0.15,0 0.26,-0.02 0.34,-0.05 0.09,-0.03 0.15,-0.08 0.19,-0.14 0.05,-0.07 0.08,-0.16 0.09,-0.27 0.01,-0.11 0.02,-0.25 0.02,-0.4l0 -4.71c0,-0.16 -0.01,-0.29 -0.02,-0.4 -0.01,-0.11 -0.04,-0.2 -0.09,-0.27 -0.04,-0.08 -0.1,-0.13 -0.19,-0.16 -0.08,-0.03 -0.19,-0.04 -0.34,-0.04l0 -0.2 2.72 0zm-0.92 5.78c0,0.15 0.01,0.29 0.02,0.4 0.02,0.11 0.05,0.2 0.09,0.27 0.04,0.06 0.11,0.11 0.19,0.14 0.09,0.03 0.2,0.05 0.34,0.05l0.28 0c0.43,0 0.78,-0.09 1.06,-0.25 0.29,-0.17 0.51,-0.4 0.68,-0.69 0.16,-0.29 0.28,-0.63 0.35,-1.02 0.06,-0.39 0.1,-0.81 0.1,-1.26 0,-0.44 -0.04,-0.86 -0.1,-1.25 -0.07,-0.39 -0.19,-0.73 -0.35,-1.03 -0.17,-0.29 -0.39,-0.52 -0.68,-0.69 -0.28,-0.17 -0.63,-0.25 -1.06,-0.25l-0.28 0c-0.14,0 -0.25,0.01 -0.34,0.04 -0.08,0.03 -0.15,0.08 -0.19,0.16 -0.04,0.07 -0.07,0.16 -0.09,0.27 -0.01,0.11 -0.02,0.24 -0.02,0.4l0 4.71zm14.28 -5.78c0.03,0.21 0.05,0.41 0.07,0.62 0.02,0.2 0.04,0.41 0.07,0.63l-0.24 0c-0.01,-0.12 -0.04,-0.24 -0.08,-0.37 -0.05,-0.12 -0.11,-0.24 -0.2,-0.34 -0.09,-0.1 -0.2,-0.18 -0.33,-0.25 -0.14,-0.06 -0.3,-0.09 -0.49,-0.09l-1.09 0c-0.14,0 -0.25,0.01 -0.33,0.04 -0.08,0.03 -0.15,0.09 -0.19,0.16 -0.04,0.07 -0.07,0.16 -0.09,0.27 -0.01,0.1 -0.02,0.24 -0.02,0.39l0 1.71c0,0.05 0.02,0.1 0.05,0.13 0.04,0.04 0.08,0.06 0.14,0.06l0.3 0c0.2,0 0.37,-0.02 0.5,-0.07 0.13,-0.04 0.23,-0.1 0.3,-0.18 0.07,-0.08 0.12,-0.17 0.15,-0.27 0.03,-0.1 0.04,-0.21 0.04,-0.33l0.23 0 0 1.9 -0.23 0c0,-0.12 -0.01,-0.23 -0.04,-0.34 -0.03,-0.1 -0.08,-0.19 -0.15,-0.27 -0.07,-0.07 -0.17,-0.13 -0.3,-0.17 -0.13,-0.05 -0.3,-0.07 -0.5,-0.07l-0.3 0c-0.06,0 -0.1,0.02 -0.14,0.06 -0.03,0.03 -0.05,0.08 -0.05,0.12l0 2.46c0,0.15 0.01,0.28 0.02,0.39 0.02,0.11 0.05,0.2 0.09,0.27 0.04,0.06 0.11,0.11 0.19,0.14 0.08,0.03 0.19,0.05 0.33,0.05l1.09 0c0.19,0 0.35,-0.03 0.49,-0.1 0.13,-0.06 0.24,-0.14 0.33,-0.25 0.09,-0.1 0.15,-0.21 0.2,-0.33 0.04,-0.13 0.07,-0.25 0.08,-0.37l0.24 0c-0.03,0.21 -0.05,0.42 -0.07,0.63 -0.02,0.2 -0.04,0.41 -0.07,0.62l-4.72 0 0 -0.2c0.15,0 0.26,-0.02 0.34,-0.05 0.09,-0.03 0.15,-0.08 0.19,-0.14 0.05,-0.07 0.08,-0.16 0.09,-0.27 0.01,-0.11 0.02,-0.24 0.02,-0.39l0 -4.74c0,-0.16 -0.01,-0.29 -0.02,-0.4 -0.01,-0.11 -0.04,-0.2 -0.09,-0.27 -0.04,-0.07 -0.1,-0.12 -0.19,-0.15 -0.08,-0.03 -0.19,-0.04 -0.34,-0.04l0 -0.2 4.72 0z"/>
  </g>
  <rect class="fil5" width="175.64" height="175.38"/>
 </g>
</svg>
